# Blender v2.81 (sub 16) OBJ File: 'tree2.blend'
# www.blender.org
mtllib tree2.mtl
o Icosphere
v -0.040972 0.716091 -0.154234
v -0.244452 0.746555 -0.100469
v -0.205966 0.757512 0.117258
v 0.122836 0.725339 0.060949
v -0.030511 0.743577 0.230901
v 0.022190 0.775086 0.565897
v 0.493126 0.742264 0.114346
v -0.433113 0.823740 0.283741
v -0.518415 0.796595 -0.307157
v 0.018518 0.700639 -0.490232
v 0.000000 2.515009 0.000000
v 0.074636 0.816144 -0.679935
v -0.698004 0.869239 -0.431543
v -0.615778 0.941671 0.403373
v 0.670567 0.889860 0.124179
v 0.053774 0.845193 0.763294
v 0.126258 1.294174 0.371010
v 0.446093 1.235445 0.007306
v -0.289148 1.320723 0.190933
v -0.308580 1.295516 -0.275353
v 0.124187 1.261381 -0.400745
v 0.143305 1.347955 0.475494
v 0.514393 1.288744 0.008535
v -0.365267 1.386041 0.259151
v -0.362418 1.373419 -0.296101
v 0.144281 1.341332 -0.490138
v 0.133401 1.815598 -0.277384
v -0.145987 1.845974 -0.177633
v -0.150065 1.883419 0.135330
v 0.328850 1.826775 -0.014634
v 0.129849 1.857793 0.237179
v 0.159150 1.901713 0.279885
v 0.400706 1.850090 -0.031400
v -0.196330 1.936418 0.153632
v -0.203361 1.905238 -0.220911
v 0.163580 1.866355 -0.354675
v -0.014853 0.170647 -0.213341
v -0.264106 0.203794 -0.148199
v -0.246198 0.221919 0.133189
v 0.169674 0.177346 0.047992
v 0.001820 0.203465 0.255271
vn 0.0202 -0.9946 0.1020
vn 0.4254 -0.8040 0.4155
vn -0.2180 0.5218 -0.8247
vn 0.7262 0.4617 -0.5094
vn 0.3765 -0.8813 -0.2856
vn -0.4636 -0.8784 0.1158
vn -0.2744 0.4071 -0.8712
vn -0.3288 -0.5436 0.7722
vn -0.2314 -0.9695 0.0811
vn -0.9476 0.3192 -0.0088
vn -0.2980 -0.7376 -0.6059
vn -0.2860 0.3354 0.8976
vn 0.4153 -0.7953 0.4417
vn 0.7475 0.4264 0.5093
vn -0.7407 -0.6682 0.0699
vn 0.7580 0.2878 -0.5853
vn -0.2781 0.6503 0.7069
vn 0.7675 0.2886 0.5725
vn -0.3212 -0.8738 0.3652
vn -0.2401 -0.8715 -0.4277
vn 0.7823 0.2580 -0.5670
vn -0.1774 -0.9757 0.1284
vn -0.1673 -0.9859 0.0033
vn -0.9133 0.4062 -0.0307
vn -0.2988 0.3723 -0.8787
vn -0.3203 0.3767 0.8692
vn 0.6370 0.4986 0.5879
vn 0.5591 -0.7450 -0.3639
vn 0.0292 -0.9988 0.0392
vn -0.7470 0.6648 0.0085
vn -0.7339 -0.6782 0.0370
vn -0.2660 -0.8337 0.4840
vn 0.4170 -0.7849 0.4583
vn 0.5510 -0.6829 -0.4797
vn -0.2972 -0.5883 -0.7521
vn 0.8024 0.0924 -0.5896
vn -0.9927 0.0519 0.1091
vn -0.4839 0.0363 0.8744
vn -0.2406 0.0934 -0.9661
vn 0.7635 0.0623 0.6428
vn -0.0973 -0.9926 0.0723
usemtl green2
s off
f 7//1 6//1 5//1 4//1
f 15//2 16//2 6//2 7//2
f 20//3 21//3 12//3 13//3
f 33//4 36//4 11//4
f 36//5 33//5 30//5 27//5
f 14//6 13//6 9//6 8//6
f 36//7 35//7 11//7
f 32//8 34//8 29//8 31//8
f 8//9 9//9 2//9 3//9
f 35//10 34//10 11//10
f 35//11 36//11 27//11 28//11
f 34//12 32//12 11//12
f 33//13 32//13 31//13 30//13
f 32//14 33//14 11//14
f 34//15 35//15 28//15 29//15
f 21//16 18//16 15//16 12//16
f 17//17 19//17 14//17 16//17
f 30//18 31//18 22//18 23//18
f 16//19 14//19 8//19 6//19
f 13//20 12//20 10//20 9//20
f 27//21 30//21 23//21 26//21
f 6//22 8//22 3//22 5//22
f 9//23 10//23 1//23 2//23
f 29//24 28//24 25//24 24//24
f 28//25 27//25 26//25 25//25
f 31//26 29//26 24//26 22//26
f 18//27 17//27 16//27 15//27
f 12//28 15//28 7//28 10//28
f 10//29 7//29 4//29 1//29
f 19//30 20//30 13//30 14//30
f 24//31 25//31 20//31 19//31
f 22//32 24//32 19//32 17//32
f 18//33 23//33 22//33 17//33
f 26//34 23//34 18//34 21//34
f 25//35 26//35 21//35 20//35
usemtl brown2
f 1//36 4//36 40//36 37//36
f 3//37 2//37 38//37 39//37
f 5//38 3//38 39//38 41//38
f 2//39 1//39 37//39 38//39
f 4//40 5//40 41//40 40//40
f 37//41 40//41 41//41 39//41 38//41
